<svg xmlns="http://www.w3.org/2000/svg" viewBox="20 42 154 156">
  <defs>
    <linearGradient id="g" x1="0%" y1="0%" x2="100%" y2="100%">
      <stop offset="0%" style="stop-color:#14F195"/>
      <stop offset="100%" style="stop-color:#9945FF"/>
    </linearGradient>
  </defs>
  <g transform="translate(0,216) scale(0.1,-0.1)" fill="url(#g)">
    <path d="M845 1716 c-156 -31 -284 -97 -402 -209 -223 -212 -298 -507 -204 -799 40 -122 65 -148 34 -35 -8 30 18 130 50 192 42 82 169 206 277 271 124 76 234 124 525 234 259 98 323 159 251 238 -28 31 -77 56 -173 88 -97 31 -253 40 -358 20z m295 -25 c36 -7 67 -16 68 -22 2 -5 8 -7 13 -3 5 3 14 2 21 -2 8 -5 6 -10 -8 -16 -17 -7 -16 -8 3 -4 30 5 104 -14 97 -25 -3 -5 2 -12 10 -15 9 -3 16 -14 16 -23 0 -13 2 -13 9 -2 7 11 10 9 15 -7 7 -22 -3 -50 -30 -76 -18 -18 -39 -22 -28 -4 4 7 3 8 -5 4 -6 -4 -9 -11 -6 -16 6 -9 -84 -55 -104 -53 -8 1 -26 -7 -39 -18 -20 -15 -28 -16 -46 -7 -18 10 -19 9 -8 -4 10 -13 10 -16 0 -15 -25 1 -78 -16 -78 -25 0 -5 -4 -7 -9 -4 -5 3 -29 -3 -54 -14 -25 -11 -53 -17 -64 -14 -13 4 -15 3 -4 -4 16 -11 8 -17 -37 -27 -18 -3 -39 -13 -47 -22 -8 -8 -15 -10 -15 -4 0 6 -5 11 -11 11 -5 0 -7 -4 -4 -10 6 -10 -7 -14 -32 -11 -7 1 -13 -2 -13 -7 0 -6 -7 -13 -16 -16 -10 -4 -13 -2 -8 7 4 6 -6 0 -22 -14 -16 -15 -40 -30 -54 -34 -14 -4 -33 -14 -42 -22 -9 -8 -22 -12 -29 -7 -7 4 -10 3 -5 -4 7 -12 -54 -52 -83 -55 -11 0 -17 -5 -15 -9 3 -4 0 -8 -7 -8 -7 0 -9 -3 -6 -6 4 -4 12 -3 20 2 7 5 -1 -3 -18 -18 -16 -15 -36 -26 -42 -23 -7 2 -12 1 -11 -3 2 -4 -10 -25 -25 -47 -15 -22 -27 -33 -28 -25 0 13 -1 13 -6 0 -3 -8 -24 -46 -46 -85 -23 -38 -41 -78 -42 -87 0 -21 -20 -24 -20 -3 0 8 -5 19 -12 26 -11 11 -11 63 2 202 3 32 1 45 -6 41 -8 -4 -8 0 -2 12 6 11 15 45 22 77 11 49 15 56 27 46 12 -10 13 -8 5 12 -6 18 -5 30 5 43 7 11 11 23 8 28 -3 5 0 7 6 6 6 -2 19 16 29 40 18 45 38 65 55 55 5 -3 6 -1 2 6 -4 6 -13 9 -19 5 -7 -3 7 13 30 36 24 23 47 39 52 35 5 -3 13 0 17 6 4 8 3 9 -4 5 -20 -12 -14 1 14 31 15 16 36 27 52 28 17 0 27 6 27 15 1 25 14 38 46 45 20 5 27 10 19 15 -8 5 -5 9 9 13 14 3 19 1 15 -6 -3 -7 3 -1 14 12 13 17 26 22 41 18 11 -3 19 -2 16 2 -6 11 101 43 154 47 23 1 45 5 47 7 8 8 160 0 224 -12z m-595 -149 c-3 -3 -11 0 -18 7 -9 10 -8 11 6 5 10 -3 15 -9 12 -12z"/>
    <path d="M1048 1693 c7 -3 16 -2 19 1 4 3 -2 6 -13 5 -11 0 -14 -3 -6 -6z"/>
    <path d="M998 1638 c-9 -5 -4 -8 15 -8 15 0 27 4 27 8 0 11 -25 11 -42 0z"/>
    <path d="M1118 1643 c6 -2 18 -2 25 0 6 3 1 5 -13 5 -14 0 -19 -2 -12 -5z"/>
    <path d="M950 1630 c0 -6 7 -10 15 -10 8 0 15 2 15 4 0 2 -7 6 -15 10 -8 3 -15 1 -15 -4z"/>
    <path d="M906 1621 c-4 -5 -29 -15 -56 -22 -28 -7 -50 -16 -50 -20 0 -4 28 2 63 13 65 22 93 38 65 38 -9 0 -19 -4 -22 -9z"/>
    <path d="M700 1610 c-9 -6 -10 -10 -3 -10 6 0 15 5 18 10 8 12 4 12 -15 0z"/>
    <path d="M764 1569 c-3 -6 -15 -9 -25 -6 -11 3 -17 1 -13 -4 3 -5 0 -9 -7 -9 -7 0 -20 -6 -28 -14 -9 -7 -36 -24 -61 -37 -53 -29 -78 -49 -191 -158 -78 -76 -103 -108 -144 -191 -30 -59 -23 -70 8 -13 101 182 261 330 445 409 23 10 42 21 42 26 0 12 -18 10 -26 -3z"/>
    <path d="M820 1540 c-24 -15 -7 -19 20 -5 15 8 19 14 10 14 -8 1 -22 -3 -30 -9z"/>
    <path d="M750 1507 c-25 -11 -47 -24 -50 -28 -3 -3 -27 -18 -55 -32 -27 -14 -65 -38 -84 -54 -46 -38 -141 -136 -141 -145 0 -5 -7 -8 -15 -8 -8 0 -15 -6 -15 -14 0 -8 -6 -16 -12 -19 -7 -2 -10 -7 -6 -11 3 -4 21 10 40 30 53 61 110 116 158 154 25 19 47 37 50 41 3 4 43 26 90 49 94 47 95 48 89 54 -2 2 -24 -5 -49 -17z"/>
    <path d="M730 1270 c-9 -6 -10 -10 -3 -10 6 0 15 5 18 10 8 12 4 12 -15 0z"/>
    <path d="M331 1131 c-51 -84 -74 -151 -52 -151 5 0 7 10 4 23 -4 18 -3 20 7 7 10 -13 11 -12 6 3 -5 17 27 95 44 107 11 8 32 51 27 56 -3 3 -19 -18 -36 -45z"/>
    <path d="M256 1045 c-9 -26 -7 -32 5 -12 6 10 9 21 6 23 -2 3 -7 -2 -11 -11z"/>
    <path d="M310 1031 c0 -6 4 -13 10 -16 6 -3 7 1 4 9 -7 18 -14 21 -14 7z"/>
    <path d="M241 994 c0 -11 3 -14 6 -6 3 7 2 16 -1 19 -3 4 -6 -2 -5 -13z"/>
    <path d="M365 1000 c-3 -5 -1 -10 4 -10 6 0 11 5 11 10 0 6 -2 10 -4 10 -3 0 -8 -4 -11 -10z"/>
    <path d="M327 961 c-4 -17 -3 -21 5 -13 5 5 8 16 6 23 -3 8 -7 3 -11 -10z"/>
    <path d="M249 883 c-6 -38 -7 -64 -3 -60 7 6 14 67 9 67 -3 0 -6 -3 -6 -7z"/>
    <path d="M1470 1540 c0 -5 4 -10 9 -10 14 0 40 -62 46 -108 7 -56 -26 -156 -75 -229 -79 -118 -192 -207 -445 -348 -228 -127 -296 -180 -312 -243 -14 -57 50 -110 158 -131 119 -24 335 16 484 90 225 110 370 288 393 480 18 147 -50 308 -192 457 -49 51 -66 62 -66 42z m94 -122 c-3 -28 -2 -30 4 -8 l8 25 18 -27 c10 -15 15 -32 12 -37 -4 -5 -1 -13 5 -17 8 -5 9 -3 4 6 -5 9 -4 11 3 6 7 -4 12 -12 12 -17 0 -6 7 -17 16 -26 8 -9 12 -23 9 -31 -3 -9 -3 -13 1 -9 8 8 35 -39 38 -68 2 -11 7 -36 11 -55 20 -90 8 -165 -46 -275 -38 -77 -122 -181 -138 -170 -5 2 -17 -5 -27 -17 -13 -15 -14 -19 -4 -14 8 4 6 1 -5 -8 -11 -8 -26 -20 -33 -27 -8 -6 -24 -12 -36 -13 -14 0 -23 -7 -22 -16 1 -10 -7 -14 -22 -13 -13 2 -21 -1 -17 -6 3 -5 -5 -12 -17 -16 -57 -17 -107 -38 -103 -45 2 -4 -10 -7 -28 -8 -17 0 -33 -6 -35 -11 -2 -6 -7 -9 -11 -7 -3 2 -30 -2 -59 -9 -35 -9 -91 -13 -160 -11 -130 5 -139 6 -185 34 -45 26 -48 59 -11 117 15 22 23 31 20 20 -5 -12 6 -6 29 18 20 20 42 37 50 37 8 0 15 4 15 10 0 14 52 38 70 33 12 -4 12 -3 1 5 -16 12 3 27 21 16 7 -4 8 -3 4 4 -5 8 0 12 13 12 12 0 29 8 39 18 10 10 24 16 30 14 7 -2 12 1 12 6 0 5 14 15 30 22 17 7 30 16 30 21 0 5 7 5 17 2 10 -4 14 -2 10 4 -8 13 37 38 52 28 6 -3 10 -3 9 2 -2 5 15 25 36 44 22 18 37 29 33 23 -3 -6 1 -11 9 -11 8 0 13 6 10 14 -3 7 -1 13 4 13 15 0 180 168 180 183 0 8 7 20 15 27 8 7 12 16 9 21 -3 5 -1 9 5 9 5 0 11 -3 14 -7 2 -5 2 -2 1 5 -2 7 4 34 12 59 18 51 23 141 10 162 -7 10 -4 11 11 3 15 -8 19 -19 17 -44z"/>
    <path d="M1581 1374 c0 -11 3 -14 6 -6 3 7 2 16 -1 19 -3 4 -6 -2 -5 -13z"/>
    <path d="M1574 1153 c-4 -21 -11 -46 -15 -55 -5 -10 -5 -19 0 -22 5 -4 12 7 15 24 3 16 9 44 12 60 3 17 3 30 0 30 -3 0 -8 -17 -12 -37z"/>
    <path d="M1507 994 c-10 -14 -16 -30 -14 -37 3 -7 6 -4 6 6 1 9 5 17 10 17 8 0 24 30 19 35 -2 2 -11 -8 -21 -21z"/>
    <path d="M1330 986 c0 -2 7 -7 16 -10 8 -3 12 -2 9 4 -6 10 -25 14 -25 6z"/>
    <path d="M1470 929 c0 -5 5 -7 10 -4 6 3 10 8 10 11 0 2 -4 4 -10 4 -5 0 -10 -5 -10 -11z"/>
    <path d="M1167 899 c7 -7 15 -10 18 -7 3 3 -2 9 -12 12 -14 6 -15 5 -6 -5z"/>
    <path d="M1626 867 c3 -10 9 -15 12 -12 3 3 0 11 -7 18 -10 9 -11 8 -5 -6z"/>
    <path d="M1382 841 c-17 -17 -32 -33 -32 -37 0 -7 15 6 68 54 7 6 10 12 5 12 -5 0 -23 -13 -41 -29z"/>
    <path d="M1426 814 c-11 -7 -18 -16 -15 -18 2 -2 13 2 23 10 11 7 18 16 15 18 -2 2 -13 -2 -23 -10z"/>
    <path d="M1596 803 c-6 -14 -5 -15 5 -6 7 7 10 15 7 18 -3 3 -9 -2 -12 -12z"/>
    <path d="M1296 782 c-3 -5 -39 -26 -80 -48 -86 -44 -96 -58 -15 -20 82 39 121 63 110 70 -5 4 -12 2 -15 -2z"/>
    <path d="M1536 767 c3 -10 9 -15 12 -12 3 3 0 11 -7 18 -10 9 -11 8 -5 -6z"/>
    <path d="M1349 754 c-7 -9 -22 -20 -34 -24 -15 -7 -16 -9 -4 -9 20 -1 67 35 58 43 -3 4 -12 -1 -20 -10z"/>
    <path d="M1250 695 c-37 -27 -36 -32 4 -14 14 7 27 18 30 25 7 17 8 18 -34 -11z"/>
    <path d="M1085 676 c-16 -7 -45 -18 -63 -25 -18 -7 -31 -16 -28 -18 7 -8 136 39 136 49 0 10 -8 9 -45 -6z"/>
    <path d="M1130 640 c-36 -16 -89 -35 -117 -41 -29 -7 -53 -15 -53 -19 0 -11 149 34 194 58 22 12 44 18 49 15 6 -3 7 -1 3 5 -9 15 1 17 -76 -18z"/>
    <path d="M875 608 c-38 -10 -74 -24 -80 -29 -7 -7 -5 -9 5 -5 8 2 47 12 85 21 76 18 116 35 80 34 -11 -1 -51 -10 -90 -21z"/>
    <path d="M865 569 c-22 -4 -55 -9 -73 -10 -18 -1 -36 -7 -39 -12 -3 -6 -1 -7 6 -3 6 4 19 2 28 -6 9 -7 14 -8 10 -2 -9 16 65 25 75 10 6 -8 8 -8 8 1 0 6 17 15 38 21 47 13 6 14 -53 1z"/>
    <path d="M1405 1400 c3 -5 10 -10 16 -10 5 0 9 5 9 10 0 6 -7 10 -16 10 -8 0 -12 -4 -9 -10z"/>
    <path d="M1306 1351 c-4 -7 -5 -15 -2 -18 9 -9 19 4 14 18 -4 11 -6 11 -12 0z"/>
    <path d="M1205 1309 c-10 -15 3 -25 16 -12 7 7 7 13 1 17 -6 3 -14 1 -17 -5z"/>
    <path d="M1100 1271 c0 -6 5 -13 10 -16 6 -3 10 1 10 9 0 9 -4 16 -10 16 -5 0 -10 -4 -10 -9z"/>
    <path d="M1385 1270 c3 -5 10 -10 16 -10 5 0 9 5 9 10 0 6 -7 10 -16 10 -8 0 -12 -4 -9 -10z"/>
    <path d="M1020 1224 c0 -8 5 -12 10 -9 6 3 10 10 10 16 0 5 -4 9 -10 9 -5 0 -10 -7 -10 -16z"/>
    <path d="M892 1189 c2 -6 8 -10 13 -10 5 0 11 4 13 10 2 6 -4 11 -13 11 -9 0 -15 -5 -13 -11z"/>
    <path d="M1330 1190 c0 -5 5 -10 10 -10 6 0 10 5 10 10 0 6 -4 10 -10 10 -5 0 -10 -4 -10 -10z"/>
    <path d="M1250 1164 c0 -8 5 -12 10 -9 6 4 8 11 5 16 -9 14 -15 11 -15 -7z"/>
    <path d="M770 1160 c0 -5 5 -10 10 -10 6 0 10 5 10 10 0 6 -4 10 -10 10 -5 0 -10 -4 -10 -10z"/>
    <path d="M1246 1123 c-11 -11 -6 -23 9 -23 8 0 15 4 15 9 0 13 -16 22 -24 14z"/>
    <path d="M1293 1105 c0 -8 4 -12 9 -9 5 3 6 10 3 15 -9 13 -12 11 -12 -6z"/>
    <path d="M726 1055 c-195 -108 -298 -203 -358 -332 -71 -151 -13 -284 178 -412 140 -94 293 -137 461 -128 128 6 200 24 308 77 193 94 330 246 396 438 26 76 24 85 -9 30 -102 -177 -364 -317 -623 -334 -169 -12 -304 25 -383 103 -62 61 -78 94 -84 174 -9 125 50 257 171 382 30 31 52 57 49 57 -4 0 -52 -25 -106 -55z m-19 -43 c-15 -16 -24 -32 -20 -36 5 -4 1 -6 -7 -4 -8 2 -14 -3 -12 -10 1 -8 -2 -11 -6 -8 -13 8 -35 -20 -67 -83 -30 -60 -33 -72 -41 -156 -12 -114 37 -216 146 -309 113 -97 234 -137 411 -137 67 1 255 37 202 40 -12 1 -34 -4 -50 -10 -46 -17 -175 -22 -254 -9 -72 12 -216 64 -265 97 -21 14 -23 18 -11 30 14 14 51 8 42 -7 -9 -15 17 -23 27 -9 7 11 8 9 4 -5 -4 -13 -2 -17 7 -13 8 3 55 0 104 -7 50 -7 112 -11 139 -9 27 2 70 5 96 6 25 1 44 5 42 8 -3 5 27 13 91 23 6 1 22 7 37 14 15 6 36 9 45 6 14 -4 15 -4 5 4 -11 7 -6 12 18 20 17 6 51 25 76 42 25 17 42 25 38 18 -8 -14 -1 -9 88 66 59 48 76 52 36 8 -13 -14 -17 -22 -9 -17 9 5 12 3 9 -6 -3 -8 -10 -13 -16 -12 -7 2 -9 -4 -5 -14 4 -11 3 -14 -5 -9 -7 4 -12 3 -12 -2 0 -4 -10 -19 -22 -32 -13 -14 -22 -29 -20 -34 2 -4 -4 -6 -12 -3 -10 4 -13 1 -10 -8 6 -14 -55 -64 -107 -87 -16 -7 -29 -16 -29 -20 0 -5 -9 -8 -20 -8 -12 0 -25 -10 -32 -25 -6 -13 -15 -22 -20 -19 -5 3 -17 -1 -26 -9 -9 -8 -34 -18 -54 -22 -21 -4 -38 -11 -38 -17 0 -5 -4 -6 -10 -3 -5 3 -20 -1 -32 -9 -12 -9 -27 -16 -33 -16 -5 0 -3 5 5 10 9 6 10 10 3 10 -6 0 -14 -4 -17 -9 -12 -19 -168 -23 -251 -7 -101 20 -155 37 -155 48 0 4 -7 8 -15 8 -8 0 -15 5 -15 10 0 6 -8 10 -17 10 -16 0 -16 2 -3 11 13 9 13 10 -1 6 -19 -6 -139 114 -139 138 0 7 -7 20 -15 29 -16 16 -37 127 -37 191 1 39 1 40 -9 10 -13 -41 7 -157 38 -220 14 -27 57 -81 95 -119 49 -47 63 -66 47 -61 -13 4 -26 10 -29 14 -15 18 -62 54 -55 42 5 -8 -10 0 -33 19 -23 18 -39 36 -37 41 3 4 0 11 -6 15 -8 4 -9 3 -5 -4 4 -7 3 -12 -2 -12 -14 0 -32 47 -44 121 -10 54 -9 82 1 131 17 83 64 178 119 239 24 27 39 49 34 49 -6 0 -19 -11 -30 -25 -11 -13 -22 -22 -25 -19 -9 9 48 54 67 54 9 0 19 7 22 15 4 8 12 15 20 15 8 0 14 4 14 8 0 8 69 62 79 62 3 0 -7 -13 -22 -28z m-77 -122 c-8 -5 -12 -10 -7 -10 4 0 -2 -16 -12 -36 -11 -20 -17 -43 -13 -52 5 -14 4 -15 -10 -2 -14 13 -13 18 8 52 14 21 22 38 19 38 -4 0 -3 5 0 10 3 6 12 10 18 10 7 0 6 -4 -3 -10z m-129 -52 c-46 -70 -71 -121 -78 -161 -3 -23 -9 -34 -13 -27 -8 13 -3 -156 6 -179 3 -11 1 -11 -9 -2 -33 27 -55 153 -34 188 4 6 4 19 0 29 -5 13 -3 15 7 9 8 -5 11 -3 8 6 -3 8 4 25 16 38 11 13 15 21 9 17 -9 -5 -11 -2 -7 8 3 9 9 14 13 12 3 -2 17 8 31 22 14 14 16 19 6 11 -17 -12 -19 -12 -11 1 18 29 39 49 47 44 4 -3 8 2 8 10 0 9 7 16 15 16 10 0 7 -11 -14 -42z m86 -97 c-1 -16 -5 -27 -9 -24 -5 2 -8 0 -8 -6 0 -5 4 -12 8 -15 5 -3 7 -27 6 -53 -2 -27 0 -42 5 -35 5 9 8 2 9 -17 1 -35 -17 -43 -20 -8 -1 12 -2 29 -3 37 0 8 -3 20 -6 25 -3 6 -5 24 -4 40 1 17 3 45 3 63 1 18 6 31 12 27 5 -3 8 -19 7 -34z m55 -221 c6 0 8 -7 5 -15 -4 -8 -1 -17 5 -21 7 -4 8 -3 4 4 -11 19 2 14 25 -9 29 -29 9 -49 -21 -21 -30 28 -62 91 -53 105 4 7 10 1 16 -16 5 -15 13 -27 19 -27z m83 -80 c11 -17 -5 -32 -21 -19 -7 6 -11 15 -8 20 7 12 21 11 29 -1z"/>
    <path d="M491 769 c-6 -18 -9 -34 -7 -36 2 -2 9 10 15 28 6 18 9 34 7 36 -2 2 -9 -10 -15 -28z"/>
    <path d="M820 375 c0 -9 42 -27 97 -41 56 -15 212 -31 203 -22 -3 3 -36 8 -75 12 -38 4 -72 10 -75 14 -5 7 -9 8 -62 11 -26 1 -30 3 -18 12 12 8 10 9 -7 4 -12 -3 -24 -1 -28 5 -6 10 -35 15 -35 5z"/>
    <path d="M905 1070 c-8 -13 -1 -24 14 -19 6 3 7 10 2 18 -6 10 -10 10 -16 1z"/>
    <path d="M1150 1040 c0 -5 4 -10 9 -10 6 0 13 5 16 10 3 6 -1 10 -9 10 -9 0 -16 -4 -16 -10z"/>
    <path d="M530 1020 c0 -5 5 -10 10 -10 6 0 10 5 10 10 0 6 -4 10 -10 10 -5 0 -10 -4 -10 -10z"/>
    <path d="M570 1026 c0 -2 7 -7 16 -10 8 -3 12 -2 9 4 -6 10 -25 14 -25 6z"/>
    <path d="M845 1010 c3 -5 8 -10 11 -10 2 0 4 5 4 10 0 6 -5 10 -11 10 -5 0 -7 -4 -4 -10z"/>
    <path d="M1050 974 c0 -8 5 -12 10 -9 6 3 10 10 10 16 0 5 -4 9 -10 9 -5 0 -10 -7 -10 -16z"/>
    <path d="M805 970 c-3 -5 1 -10 10 -10 9 0 13 5 10 10 -3 6 -8 10 -10 10 -2 0 -7 -4 -10 -10z"/>
    <path d="M970 940 c0 -5 5 -10 10 -10 6 0 10 5 10 10 0 6 -4 10 -10 10 -5 0 -10 -4 -10 -10z"/>
    <path d="M410 920 c0 -5 5 -10 10 -10 6 0 10 5 10 10 0 6 -4 10 -10 10 -5 0 -10 -4 -10 -10z"/>
    <path d="M756 882 c-3 -6 -1 -14 5 -17 15 -10 25 3 12 16 -7 7 -13 7 -17 1z"/>
    <path d="M856 872 c-3 -6 -1 -14 5 -17 15 -10 25 3 12 16 -7 7 -13 7 -17 1z"/>
    <path d="M720 796 c0 -9 5 -16 10 -16 6 0 10 4 10 9 0 6 -4 13 -10 16 -5 3 -10 -1 -10 -9z"/>
  </g>
</svg>
